<svg width="42" height="42" xmlns="http://www.w3.org/2000/svg">
    <defs>
        <filter x="-3.9%" y="-41.4%" width="107.8%" height="182.8%" filterUnits="objectBoundingBox" id="a">
            <feOffset dy="2" in="SourceAlpha" result="shadowOffsetOuter1"/>
            <feGaussianBlur stdDeviation="2" in="shadowOffsetOuter1" result="shadowBlurOuter1"/>
            <feColorMatrix values="0 0 0 0 0 0 0 0 0 0 0 0 0 0 0 0 0 0 0.5 0" in="shadowBlurOuter1" result="shadowMatrixOuter1"/>
            <feMerge>
                <feMergeNode in="shadowMatrixOuter1"/>
                <feMergeNode in="SourceGraphic"/>
            </feMerge>
        </filter>
    </defs>
    <g filter="url(#a)" transform="translate(9 6)" fill="none" fill-rule="evenodd">
        <path d="M0 3h24v24H0z"/>
        <path d="M17 14h-5v5h5v-5zM16 3v2H8V3H6v2H5c-1.11 0-1.99.9-1.99 2L3 21a2 2 0 0 0 2 2h14c1.1 0 2-.9 2-2V7c0-1.1-.9-2-2-2h-1V3h-2zm3 18H5V10h14v11z" fill="#FEA63B" fill-rule="nonzero"/>
    </g>
</svg>
